<svg height="511pt" viewBox="-28 1 511 511.999" width="511pt" xmlns="http://www.w3.org/2000/svg"><path d="m447.070312 483.378906-112.566406-51.945312c-5.292968-2.441406-8.714844-7.789063-8.714844-13.617188v-46.742187c15.285157-20.382813 24.351563-45.679688 24.351563-73.058594v-84.011719h31.640625c8.285156 0 15-6.714844 15-15 0-8.28125-6.714844-15-15-15h-12.601562v-15.507812c0-48.34375-24.449219-91.078125-61.632813-116.5v-9.539063c0-8.285156-6.714844-15-15-15-6.289063 0-11.664063 3.875-13.894531 9.359375-11.222656-4.320312-23.128906-7.246094-35.507813-8.5625v-13.253906c0-8.285156-6.71875-15-15-15-8.285156 0-15 6.714844-15 15v13.253906c-12.382812 1.316406-24.285156 4.242188-35.503906 8.558594-2.230469-5.484375-7.605469-9.355469-13.894531-9.355469-8.28125 0-15 6.714844-15 15v9.53125c-37.183594 25.421875-61.640625 68.160157-61.640625 116.503907v15.511718h-12.601563c-8.28125 0-15 6.714844-15 15s6.71875 15 15 15h31.640625v84.011719c0 27.375 9.066407 52.675781 24.355469 73.054687v46.742188c0 5.832031-3.421875 11.179688-8.714844 13.621094l-112.570312 51.945312c-6.394532 2.953125-9.875 9.957032-8.363282 16.839844 1.511719 6.878906 7.605469 11.78125 14.648438 11.78125h425.285156c7.046875 0 13.140625-4.902344 14.652344-11.78125 1.511719-6.882812-1.96875-13.886719-8.367188-16.839844zm-281.21875-25.414062c-6.128906-7.832032-8.78125-15.882813-9.886718-20.527344 2.921875-6.015625 4.535156-12.703125 4.535156-19.621094v-18.328125c19.371094 12.957031 42.640625 20.523438 67.644531 20.523438 25.003907 0 48.273438-7.566407 67.644531-20.523438v18.328125c0 7.226563 1.757813 14.207032 4.9375 20.429688-1.285156 4.757812-4.066406 12.289062-9.894531 19.636718-12.695312 16.003907-33.785156 24.117188-62.683593 24.117188-28.859376 0-49.820313-8.085938-62.296876-24.035156zm-48.746093-289.46875c0-30.144532 12.078125-57.515625 31.644531-77.542969v24.332031c0 8.285156 6.714844 15 15 15 8.28125 0 14.996094-6.714844 14.996094-15v-46.214844c10.617187-5.296874 22.195312-8.941406 34.398437-10.597656v75.214844c0 8.28125 6.714844 15 15 15 8.28125 0 15-6.71875 15-15v-75.214844c12.203125 1.65625 23.78125 5.304688 34.402344 10.601563v46.210937c0 8.285156 6.714844 15 15 15 8.28125 0 15-6.714844 15-15v-24.324218c19.558594 20.027343 31.632813 47.394531 31.632813 77.535156v15.507812h-222.074219zm203.035156 45.507812v84.011719c0 50.726563-41.269531 91.996094-91.996094 91.996094-50.730469 0-92-41.269531-92-91.996094v-84.011719zm-188.082031 245.726563c2.191406 4.785156 5.085937 9.921875 8.910156 15.070312 1.90625 2.570313 3.925781 4.957031 6.019531 7.199219h-63.183593zm177.519531 22.269531c2.089844-2.214844 4.109375-4.574219 6.023437-7.113281 3.855469-5.113281 6.785157-10.21875 9.019532-14.972657l47.863281 22.085938zm0 0"/></svg>